<svg id="visual" viewBox="0 0 700 184" width="700" height="184" xmlns="http://www.w3.org/2000/svg" style="transform: scaleX(-1);" xmlns:xlink="http://www.w3.org/1999/xlink" version="1.1"><g><g transform="translate(112 103)"><path d="M44.5 -27.8C52.1 -12.5 48.9 6.9 39.7 23.2C30.5 39.6 15.2 52.7 0 52.8C-15.3 52.8 -30.7 39.7 -38.3 24.3C-45.9 8.9 -45.9 -8.8 -38.2 -24.1C-30.5 -39.4 -15.3 -52.3 1.6 -53.3C18.4 -54.2 36.9 -43.1 44.5 -27.8Z" fill="#7067cf"></path></g><g transform="translate(274 96)"><path d="M32.2 -20.4C37.4 -9.4 34.6 4.5 27.9 16C21.2 27.6 10.6 36.8 -2.2 38.1C-15 39.3 -30 32.7 -37.6 20.6C-45.2 8.6 -45.3 -8.8 -37.8 -21.1C-30.3 -33.4 -15.2 -40.5 -0.9 -40C13.4 -39.5 26.9 -31.4 32.2 -20.4Z" fill="#9c96d6"></path></g><g transform="translate(554 113)"><path d="M38.4 -20.4C45.8 -9.3 45.2 8.2 37.4 19.9C29.7 31.6 14.8 37.5 0.2 37.4C-14.5 37.3 -29 31.2 -36.6 19.5C-44.2 7.9 -45 -9.3 -37.8 -20.2C-30.6 -31.2 -15.3 -35.9 0.1 -36C15.5 -36 31 -31.4 38.4 -20.4Z" fill="#9c96d6"></path></g><g transform="translate(415 119)"><path d="M39.4 -24.9C46.9 -9.6 46.2 8.3 38.3 20.9C30.3 33.4 15.2 40.5 0.4 40.3C-14.4 40.1 -28.9 32.6 -38.2 19.2C-47.6 5.9 -51.8 -13.2 -44.6 -28.3C-37.4 -43.3 -18.7 -54.3 -1.4 -53.5C15.9 -52.7 31.8 -40.1 39.4 -24.9Z" fill="#7067cf"></path></g></g></svg>