<svg id="visual" viewBox="0 0 900 200" width="900" height="200" xmlns="http://www.w3.org/2000/svg" xmlns:xlink="http://www.w3.org/1999/xlink" version="1.1"><path d="M0 51L13.7 47.3C27.3 43.7 54.7 36.3 82 32.7C109.3 29 136.7 29 163.8 34.3C191 39.7 218 50.3 245.2 50.3C272.3 50.3 299.7 39.7 327 33.7C354.3 27.7 381.7 26.3 409 30.7C436.3 35 463.7 45 491 51.3C518.3 57.7 545.7 60.3 573 59.3C600.3 58.3 627.7 53.7 654.8 47.7C682 41.7 709 34.3 736.2 31C763.3 27.7 790.7 28.3 818 29C845.3 29.7 872.7 30.3 886.3 30.7L900 31L900 0L886.3 0C872.7 0 845.3 0 818 0C790.7 0 763.3 0 736.2 0C709 0 682 0 654.8 0C627.7 0 600.3 0 573 0C545.7 0 518.3 0 491 0C463.7 0 436.3 0 409 0C381.7 0 354.3 0 327 0C299.7 0 272.3 0 245.2 0C218 0 191 0 163.8 0C136.7 0 109.3 0 82 0C54.7 0 27.3 0 13.7 0L0 0Z" fill="#f3e8e9"></path><path d="M0 95L13.7 96.3C27.3 97.7 54.7 100.3 82 101.7C109.3 103 136.7 103 163.8 109.3C191 115.7 218 128.3 245.2 126.3C272.3 124.3 299.7 107.7 327 95.7C354.3 83.7 381.7 76.3 409 79.7C436.3 83 463.7 97 491 108.7C518.3 120.3 545.7 129.7 573 130.3C600.3 131 627.7 123 654.8 111.7C682 100.3 709 85.7 736.2 88C763.3 90.3 790.7 109.7 818 114.3C845.3 119 872.7 109 886.3 104L900 99L900 29L886.3 28.7C872.7 28.3 845.3 27.7 818 27C790.7 26.3 763.3 25.7 736.2 29C709 32.3 682 39.7 654.8 45.7C627.7 51.7 600.3 56.3 573 57.3C545.7 58.3 518.3 55.7 491 49.3C463.7 43 436.3 33 409 28.7C381.7 24.3 354.3 25.7 327 31.7C299.7 37.7 272.3 48.3 245.2 48.3C218 48.3 191 37.7 163.8 32.3C136.7 27 109.3 27 82 30.7C54.7 34.3 27.3 41.7 13.7 45.3L0 49Z" fill="#ecdbdd"></path><path d="M0 117L13.7 120.7C27.3 124.3 54.7 131.7 82 136.3C109.3 141 136.7 143 163.8 149C191 155 218 165 245.2 162.3C272.3 159.7 299.7 144.3 327 134.3C354.3 124.3 381.7 119.7 409 122C436.3 124.3 463.7 133.7 491 140.7C518.3 147.7 545.7 152.3 573 155C600.3 157.7 627.7 158.3 654.8 151.7C682 145 709 131 736.2 132.7C763.3 134.3 790.7 151.7 818 154.3C845.3 157 872.7 145 886.3 139L900 133L900 97L886.3 102C872.7 107 845.3 117 818 112.3C790.7 107.7 763.3 88.3 736.2 86C709 83.7 682 98.3 654.8 109.7C627.7 121 600.3 129 573 128.3C545.7 127.7 518.3 118.3 491 106.7C463.7 95 436.3 81 409 77.7C381.7 74.3 354.3 81.7 327 93.7C299.7 105.7 272.3 122.3 245.2 124.3C218 126.3 191 113.7 163.8 107.3C136.7 101 109.3 101 82 99.7C54.7 98.3 27.3 95.7 13.7 94.3L0 93Z" fill="#e4ced1"></path><path d="M0 201L13.7 201C27.3 201 54.7 201 82 201C109.3 201 136.7 201 163.8 201C191 201 218 201 245.2 201C272.3 201 299.7 201 327 201C354.3 201 381.7 201 409 201C436.3 201 463.7 201 491 201C518.3 201 545.7 201 573 201C600.3 201 627.7 201 654.8 201C682 201 709 201 736.2 201C763.3 201 790.7 201 818 201C845.3 201 872.7 201 886.3 201L900 201L900 131L886.3 137C872.7 143 845.3 155 818 152.3C790.7 149.7 763.3 132.3 736.2 130.7C709 129 682 143 654.8 149.7C627.7 156.3 600.3 155.7 573 153C545.7 150.3 518.3 145.7 491 138.7C463.7 131.7 436.3 122.3 409 120C381.7 117.7 354.3 122.3 327 132.3C299.7 142.3 272.3 157.7 245.2 160.3C218 163 191 153 163.8 147C136.7 141 109.3 139 82 134.3C54.7 129.7 27.3 122.3 13.7 118.7L0 115Z" fill="#ddc1c6"></path></svg>